<svg xmlns="http://www.w3.org/2000/svg" viewBox="0 0 3422.61 357.37"><defs><style>.cls-1{fill:#fff;}</style></defs><title>logolulu</title><g id="Ebene_1" data-name="Ebene 1"><path class="cls-1" d="M130.4,231.66a14.66,14.66,0,0,1-10-3.8,12.24,12.24,0,0,1-4.28-9.54,12.63,12.63,0,0,1,4.28-10,14.51,14.51,0,0,1,10-3.84H356.72a15.15,15.15,0,0,1,10.49,3.84,12.64,12.64,0,0,1,4.29,10,12.06,12.06,0,0,1-4.29,9.77,15.89,15.89,0,0,1-10.49,3.57ZM243.8,538a14.75,14.75,0,0,1-11-4.3,13.59,13.59,0,0,1-4.29-10V220.22h30V523.73a13.67,13.67,0,0,1-4.29,10A14.26,14.26,0,0,1,243.8,538Z" transform="translate(-116.11 -185.44)"/><path class="cls-1" d="M536.38,292.66q30,0,48.59,12.83a75.94,75.94,0,0,1,27.41,34.79q8.82,21.93,8.81,48.62V523.73A14.68,14.68,0,0,1,606.9,538a14.27,14.27,0,0,1-14.78-14.31V388.9q0-19.54-6-35a54.57,54.57,0,0,0-19.06-25q-13.11-9.54-35.5-9.54a79.37,79.37,0,0,0-37.89,9.54,82,82,0,0,0-28.83,25,59,59,0,0,0-10.95,35V523.73A14.68,14.68,0,0,1,439.65,538a14.28,14.28,0,0,1-14.78-14.31v-324a13.82,13.82,0,0,1,4.29-10.05,14.38,14.38,0,0,1,10.49-4.26,13.56,13.56,0,0,1,10.24,4.26,14.23,14.23,0,0,1,4.05,10.05V354.12l-11,16.67a64.13,64.13,0,0,1,9.29-28.85A99.4,99.4,0,0,1,474,316.7a106.9,106.9,0,0,1,29.55-17.6A88,88,0,0,1,536.38,292.66Z" transform="translate(-116.11 -185.44)"/><path class="cls-1" d="M804.16,542.81q-37.17,0-65-15.74a112.24,112.24,0,0,1-43.61-43.82q-15.74-28.1-15.72-65.77,0-40.49,16-69.1t41.46-44.05q25.5-15.46,54.09-15.51A115.52,115.52,0,0,1,832,296.23a101.75,101.75,0,0,1,35,21.9,113.21,113.21,0,0,1,24.78,35.52q9.54,20.94,10,48.59a13,13,0,0,1-4.29,9.77,14,14,0,0,1-10,4H696.47l-5.72-25.71H878l-6.21,5.7V386.5q-1.92-22.39-14.29-37.85a84.7,84.7,0,0,0-29.78-23.85,83.63,83.63,0,0,0-36.45-8.33A81.42,81.42,0,0,0,762,322.21,76.76,76.76,0,0,0,734.82,340q-12.12,12.16-19.75,31t-7.64,44.55q0,28.1,11.44,51a88.55,88.55,0,0,0,32.88,36.22q21.43,13.32,51.94,13.34a87.19,87.19,0,0,0,29.53-4.77,86.3,86.3,0,0,0,23.6-12.64,91.71,91.71,0,0,0,16.9-16.44c3.18-2.83,6.52-4.27,10-4.27a11.67,11.67,0,0,1,8.82,3.8,12.25,12.25,0,0,1,3.57,8.57,13.05,13.05,0,0,1-4.75,10q-14.31,17.16-37.17,29.78A102,102,0,0,1,804.16,542.81Z" transform="translate(-116.11 -185.44)"/><path class="cls-1" d="M1247.77,542.81q-37.17,0-68.38-12.87a166.81,166.81,0,0,1-54.56-36,161.81,161.81,0,0,1-36.2-54.56q-12.89-31.41-12.88-68.13t12.88-68.13a161.81,161.81,0,0,1,36.2-54.56,167.44,167.44,0,0,1,54.56-36q31.2-12.86,68.38-12.83a196.5,196.5,0,0,1,48.61,5.93,149.24,149.24,0,0,1,42.4,17.88,16.58,16.58,0,0,1,5,5.46,14.52,14.52,0,0,1,1.67,6.91,13.21,13.21,0,0,1-4.52,10.27c-3,2.68-6.12,4-9.3,4a12.49,12.49,0,0,1-4.29-.7c-1.26-.51-2.69-1-4.28-1.67a182.15,182.15,0,0,0-35.27-14.08,144.56,144.56,0,0,0-40-5.46q-41,0-72.9,18.8a135.41,135.41,0,0,0-50,51q-18.09,32.16-18.09,73.13t18.09,73.41a132.89,132.89,0,0,0,50,50.95q31.91,18.61,72.9,18.61a157.16,157.16,0,0,0,43.12-6.2q21.67-6.22,37.4-16.68l-2.38,10V391.77l7.15,6.67h-82.44a14.18,14.18,0,0,1-10.47-4.3,13.71,13.71,0,0,1-4.28-10c0-4.46,1.41-7.95,4.28-10.47a15.09,15.09,0,0,1,10.47-3.83h90.55a14.47,14.47,0,0,1,10.72,4.07,13.87,13.87,0,0,1,4,10.23V499a14.23,14.23,0,0,1-1.92,7.18,17.8,17.8,0,0,1-5.23,5.7,188.24,188.24,0,0,1-47.41,22.64A174.58,174.58,0,0,1,1247.77,542.81Z" transform="translate(-116.11 -185.44)"/><path class="cls-1" d="M1647.06,416.05q0,36.24-16,65.07A119.72,119.72,0,0,1,1588,526.37q-27.15,16.46-61.46,16.44-33.86,0-61.23-16.44a119,119,0,0,1-43.37-45.25q-16-28.86-16-65.07,0-36.65,16-65.26a121.07,121.07,0,0,1,43.37-45.3q27.4-16.64,61.23-16.67,34.29,0,61.46,16.67a121.84,121.84,0,0,1,43.13,45.3Q1647.07,379.35,1647.06,416.05Zm-29.06,0q0-29-11.91-51.69a90.27,90.27,0,0,0-32.65-35.48Q1552.74,316,1526.52,316t-46.94,12.88a92,92,0,0,0-32.88,35.48q-12.17,22.62-12.16,51.69t12.16,51.46A94.21,94.21,0,0,0,1479.58,503q20.75,13.08,46.94,13.1t46.92-13.1a92.39,92.39,0,0,0,32.65-35.52Q1618,445.12,1618,416.05Z" transform="translate(-116.11 -185.44)"/><path class="cls-1" d="M1930.56,416.05q0,36.24-16,65.07a119.69,119.69,0,0,1-43.12,45.25q-27.16,16.46-61.47,16.44-33.84,0-61.23-16.44a119.05,119.05,0,0,1-43.37-45.25q-16-28.86-16-65.07,0-36.65,16-65.26a121.14,121.14,0,0,1,43.37-45.3q27.4-16.64,61.23-16.67,34.29,0,61.47,16.67a121.82,121.82,0,0,1,43.12,45.3Q1930.57,379.35,1930.56,416.05Zm-29.06,0q0-29-11.9-51.69a90.3,90.3,0,0,0-32.66-35.48Q1836.24,316,1810,316t-46.94,12.88a92.08,92.08,0,0,0-32.88,35.48Q1718,387,1718,416.05t12.16,51.46A94.29,94.29,0,0,0,1763.08,503q20.75,13.08,46.94,13.1t46.92-13.1a92.42,92.42,0,0,0,32.66-35.52Q1901.5,445.12,1901.5,416.05Z" transform="translate(-116.11 -185.44)"/><path class="cls-1" d="M2186.92,185.44a13.59,13.59,0,0,1,10.24,4.26,14.23,14.23,0,0,1,4.05,10.05v324A14.66,14.66,0,0,1,2186.92,538a14.27,14.27,0,0,1-14.77-14.31V467l8.57-6.67c0,9.23-2.39,18.65-7.16,28.35a91.32,91.32,0,0,1-20.24,26.68,108.42,108.42,0,0,1-30.5,19.77,93.31,93.31,0,0,1-37.88,7.64q-31.93,0-57.18-16.67t-40-45.3Q1973,452.3,1973,415.58q0-36.18,14.77-65t40-45.29q25.25-16.39,56.71-16.44a99.12,99.12,0,0,1,37.64,7.17,103.9,103.9,0,0,1,31.21,19.55,91.49,91.49,0,0,1,21.21,28.34,76.26,76.26,0,0,1,7.62,33.12l-10-7.17V199.75a14.2,14.2,0,0,1,14.77-14.31Zm-99.11,330.69q25.24,0,44.78-13.1t30.74-35.76q11.19-22.62,11.2-51.69,0-28.62-11.2-51.22t-30.74-35.48Q2113.06,316,2087.81,316q-24.78,0-44.56,12.88t-31,35.48q-11.2,22.62-11.19,51.22T2012.27,467q11.19,22.86,31,36A79,79,0,0,0,2087.81,516.13Z" transform="translate(-116.11 -185.44)"/><path class="cls-1" d="M2657.21,204.48q6.2,0,9.78,3.84a13.31,13.31,0,0,1,3.56,9.5v305c0,4.77-1.51,8.49-4.51,11.21a15.12,15.12,0,0,1-10.26,4,17.42,17.42,0,0,1-6.42-1.2,11.34,11.34,0,0,1-5-3.57l-212.52-285.9,8.09-4.77V525.17a12.47,12.47,0,0,1-3.8,9.07,13,13,0,0,1-9.54,3.8c-4.13,0-7.39-1.28-9.78-3.8a13,13,0,0,1-3.56-9.07V218.79q0-6.69,4.05-10.47a13.66,13.66,0,0,1,9.77-3.84,18.83,18.83,0,0,1,6.19,1.2,10.25,10.25,0,0,1,5.25,4.07l210.13,283-4.76,8.57V217.82a13.07,13.07,0,0,1,13.33-13.34Z" transform="translate(-116.11 -185.44)"/><path class="cls-1" d="M3306.68,289.32a15.4,15.4,0,0,1,10.24,3.8,13.05,13.05,0,0,1,4.51,10.47,14,14,0,0,1-.46,3.34c-.33,1.28-.64,2.4-.95,3.33L3246.63,529a15.94,15.94,0,0,1-6,6.9,13.44,13.44,0,0,1-8.82,2.13q-8.12-.46-12.86-9l-66.71-158.22,8.57,1.9L3101.29,529q-3.81,8.55-12.85,9a13.47,13.47,0,0,1-8.59-2.13,12.92,12.92,0,0,1-5.72-6.9l-75.75-218.75a27.64,27.64,0,0,1-1-6.67,14.22,14.22,0,0,1,14.77-14.27,13.88,13.88,0,0,1,7.86,2.37,12.64,12.64,0,0,1,5,7.13l67.66,203-9-.46,61.46-154.88q3.81-9,13.34-9a13.58,13.58,0,0,1,8.11,2.36,15.88,15.88,0,0,1,5.25,6.67l65.26,155.34-11,.47,67.18-203.47C3295.55,292.5,3300,289.32,3306.68,289.32Z" transform="translate(-116.11 -185.44)"/><path class="cls-1" d="M3360,499.46c-2.56-3.84-3.75-7.56-3.59-11.21s2.15-6.59,6-8.8a11.16,11.16,0,0,1,8.8-2.87,15.06,15.06,0,0,1,9.31,4.77,101,101,0,0,0,31.2,26.91q18.34,10.25,43.6,10.24a80.36,80.36,0,0,0,26.45-4.54,51.56,51.56,0,0,0,21.67-13.8c5.72-6.21,8.59-14,8.59-23.58q0-14.77-8.59-23.58t-22.16-14.31a215,215,0,0,0-29.29-9.3q-16.2-4.25-31.22-9.77a115,115,0,0,1-26.91-13.81A63,63,0,0,1,3375,385.57q-6.91-11.93-6.9-29.08,0-20,10.72-35.25t29.78-23.81q19.05-8.61,42.41-8.61a120.72,120.72,0,0,1,26.19,3.1,109.49,109.49,0,0,1,27.17,10.24,81.64,81.64,0,0,1,23.82,19.54,13.46,13.46,0,0,1,4.29,9.77c0,3.65-1.59,7.1-4.75,10.24a13.34,13.34,0,0,1-8.82,2.64,11.32,11.32,0,0,1-8.34-4.07A72.53,72.53,0,0,0,3483.45,321a88.3,88.3,0,0,0-33.84-6.43,77.11,77.11,0,0,0-26,4.3,47.82,47.82,0,0,0-20.26,13.34q-8.11,9-8.1,23.81c.64,9.23,3.89,16.67,9.77,22.41s13.65,10.47,23.34,14.27a288.83,288.83,0,0,0,32.65,10.47,279.67,279.67,0,0,1,29.3,9.08,102.06,102.06,0,0,1,24.78,13.1,58.81,58.81,0,0,1,17.16,19.78q6.42,11.92,6.43,30,0,21-11.67,36.22t-31.21,23.35q-19.55,8.09-43.36,8.1a128.54,128.54,0,0,1-49.81-10Q3378.63,522.81,3360,499.46Z" transform="translate(-116.11 -185.44)"/><rect class="cls-1" x="2834.47" y="209.48" width="26.68" height="222.04" rx="13.34" transform="translate(3052.19 -2712.75) rotate(90)"/><rect class="cls-1" x="2834.47" y="299.81" width="26.68" height="222.04" rx="13.34" transform="translate(3142.53 -2622.42) rotate(90)"/><rect class="cls-1" x="2803.78" y="420.83" width="26.68" height="160.67" rx="13.34" transform="translate(3202.17 -2501.4) rotate(90)"/></g></svg>